<?xml version="1.0" encoding="UTF-8" standalone="no"?>
<!DOCTYPE svg PUBLIC "-//W3C//DTD SVG 1.1//EN" "http://www.w3.org/Graphics/SVG/1.1/DTD/svg11.dtd">
<svg width="100%" height="100%" viewBox="0 0 215 125" version="1.1" xmlns="http://www.w3.org/2000/svg" xmlns:xlink="http://www.w3.org/1999/xlink" xml:space="preserve" xmlns:serif="http://www.serif.com/" style="fill-rule:evenodd;clip-rule:evenodd;stroke-linecap:round;stroke-linejoin:round;">
    <g transform="matrix(0.554188,0,0,0.554188,-8.00776,-20.0711)">
        <g transform="matrix(0.87943,0.38114,-0.380938,0.878963,-7.96833,-42.6645)">
            <path d="M66.466,91.162C64.077,85.199 61.659,78.608 63.695,72.515C64.643,69.678 66.493,67.229 68.521,65.029C78.102,54.635 119.077,39.166 135.003,33.337C143.372,30.274 151.864,32.685 158.042,42.741C170.216,62.558 199.889,136.981 215.541,183.25C216.668,186.58 217.796,190.162 216.849,193.547C215.95,196.76 213.334,199.188 210.625,201.134C206.302,204.239 201.477,206.565 196.637,208.781C177.054,217.747 166.392,221.481 145.654,227.292C141.833,228.363 137.781,229.381 133.947,228.359C127.894,226.745 124.304,220.688 121.389,215.143C103.62,181.335 65.885,90.452 66.466,91.162Z" style="fill:rgb(33,88,166);fill-rule:nonzero;stroke:rgb(6,8,9);stroke-width:1.5px;"/>
        </g>
        <g transform="matrix(0.917535,0.397655,-0.397655,0.917535,-9.82976,-44.9418)">
            <path d="M74.652,94.51C72.523,89.196 69.628,82.213 71.443,76.785C72.288,74.257 73.936,72.075 75.743,70.115C84.28,60.853 119.742,47.474 133.932,42.28C138.427,40.635 144.491,38.218 152.496,48.802C163.929,63.919 186.825,125.118 200.572,165.755C201.576,168.722 202.581,171.913 201.737,174.93C200.936,177.793 198.605,179.956 196.191,181.69C192.339,184.457 188.039,186.529 183.727,188.504C166.278,196.493 157.827,199.416 139.348,204.594C135.943,205.548 132.333,206.456 128.916,205.545C123.522,204.107 120.324,198.71 117.727,193.769C101.895,163.645 74.134,93.877 74.652,94.51Z" style="fill:white;fill-rule:nonzero;stroke:rgb(6,8,9);stroke-width:1.5px;"/>
        </g>
        <g transform="matrix(0.917535,0.397655,-0.397655,0.917535,-9.82976,-29.5885)">
            <path d="M103.233,86.897C98.671,91.459 96.298,97.873 95.256,104.24C93.446,115.299 96.567,127.4 104.645,135.168C108.166,138.554 112.496,141.042 117.092,142.699C127.95,146.614 140.424,145.783 150.672,140.473C162.534,134.327 163.542,125.56 164.328,121.805C166.409,111.852 165.706,99.682 158.816,91.075C150.161,80.264 126.598,63.531 103.232,86.896L103.233,86.897Z" style="fill:rgb(156,196,251);fill-rule:nonzero;stroke:rgb(6,8,9);stroke-width:1.5px;"/>
        </g>
        <g transform="matrix(0.917535,0.397655,-0.397655,0.917535,-9.82976,-29.5885)">
            <path d="M142.487,88.045C141.283,103.001 139.354,117.898 136.709,132.667C128.445,130.939 120.182,129.211 112.518,127.301C112.916,124.064 114.201,121.977 115.109,118.476C119.496,119.274 123.378,119.714 128.565,121.034C130.503,109.88 132.441,98.727 134.379,87.573C137.096,87.791 139.814,88.009 142.487,88.045Z" style="fill:white;fill-rule:nonzero;stroke:rgb(6,8,9);stroke-width:1.5px;"/>
        </g>
    </g>
    <g transform="matrix(0.634267,0,0,0.634267,-49.1603,-214.335)">
        <path d="M382.046,523.647C393.618,475.625 403.116,428.984 415.254,377.938C416.17,374.087 413.235,370.39 409.277,370.398C337.08,370.542 284.923,372.01 218.442,372.126C215.088,372.132 212.181,374.446 211.436,377.716C201.129,422.911 189.064,475.88 181.889,523.259C244.754,523.259 313.921,523.647 382.046,523.647Z" style="fill:rgb(33,88,166);fill-rule:nonzero;stroke:rgb(6,8,9);stroke-width:1.5px;"/>
    </g>
    <g transform="matrix(0.634267,0,0,0.634267,-49.1603,-214.335)">
        <path d="M372.922,514.679C383.78,470.931 392.755,427.911 404.397,381.002C334.385,381.002 284.283,383.062 220.284,383.062C210.83,423.333 199.244,472.04 192.56,514.891C248.786,514.891 311.991,514.679 372.922,514.679Z" style="fill:white;fill-rule:nonzero;stroke:rgb(6,8,9);stroke-width:1.5px;"/>
    </g>
    <g transform="matrix(0.634267,0,0,0.634267,-49.1603,-214.335)">
        <path d="M381.884,523.063C381.737,524.011 381.665,524.845 381.634,525.617C381.46,530.026 377.822,533.5 373.41,533.499C280.006,533.486 198.577,533.245 104.057,533.233C100.595,533.233 98.088,529.917 99.039,526.588C99.049,526.554 99.059,526.519 99.068,526.485C99.722,524.197 101.832,522.64 104.211,522.704C142.879,523.735 318.254,523.063 381.884,523.063Z" style="fill:rgb(33,88,166);fill-rule:nonzero;stroke:rgb(6,8,9);stroke-width:1.5px;"/>
    </g>
    <g transform="matrix(0.634267,0,0,0.634267,-49.1603,-214.335)">
        <path d="M240.359,523.033C239.042,523.269 237.89,524.148 237.164,525.272C236.438,526.396 236.113,527.744 236.063,529.081C236.028,530.034 236.138,531.027 236.626,531.846C237.114,532.665 238.046,533.272 238.993,533.153" style="fill:none;fill-rule:nonzero;stroke:rgb(6,8,9);stroke-width:1.5px;"/>
    </g>
    <g transform="matrix(0.508487,0.220375,-0.290654,0.478029,102.063,-12.402)">
        <path d="M103.233,86.897C98.671,91.459 96.298,97.873 95.256,104.24C93.446,115.299 96.567,127.4 104.645,135.168C108.166,138.554 112.496,141.042 117.092,142.699C127.95,146.614 140.424,145.783 150.672,140.473C162.534,134.327 163.542,125.56 164.328,121.805C166.409,111.852 165.706,99.682 158.816,91.075C150.161,80.264 126.598,63.531 103.232,86.896L103.233,86.897Z" style="fill:rgb(156,196,251);fill-rule:nonzero;stroke:rgb(6,8,9);stroke-width:1.5px;"/>
    </g>
    <g transform="matrix(0.508487,0.220375,-0.290654,0.478029,102.063,-12.402)">
        <path d="M142.487,88.045C141.283,103.001 139.354,117.898 136.709,132.667C128.445,130.939 120.182,129.211 112.518,127.301C112.916,124.064 114.201,121.977 115.109,118.476C119.496,119.274 123.378,119.714 128.565,121.034C130.503,109.88 132.441,98.727 134.379,87.573C137.096,87.791 139.814,88.009 142.487,88.045Z" style="fill:white;fill-rule:nonzero;stroke:rgb(6,8,9);stroke-width:1.5px;"/>
    </g>
</svg>
