<?xml version="1.0" encoding="UTF-8" standalone="no"?>
<!DOCTYPE svg PUBLIC "-//W3C//DTD SVG 1.1//EN" "http://www.w3.org/Graphics/SVG/1.1/DTD/svg11.dtd">
<svg width="100%" height="100%" viewBox="0 0 273 197" version="1.1" xmlns="http://www.w3.org/2000/svg" xmlns:xlink="http://www.w3.org/1999/xlink" xml:space="preserve" xmlns:serif="http://www.serif.com/" style="fill-rule:evenodd;clip-rule:evenodd;stroke-linecap:round;stroke-linejoin:round;">
    <g>
        <path d="M49.5,59.7C48.063,54.854 46.649,49.515 48.688,44.891C49.638,42.738 51.265,40.954 53.014,39.378C61.276,31.933 136.427,6.496 149.327,3.09C156.106,1.3 162.583,3.807 166.69,12.135C174.783,28.546 200.549,112.3 209.44,149.685C210.08,152.376 210.703,155.264 209.714,157.847C208.776,160.298 206.55,162.01 204.286,163.337C200.673,165.455 196.724,166.925 192.771,168.308C176.778,173.905 126.228,192.358 109.559,195.399C106.488,195.959 103.239,196.462 100.31,195.382C95.686,193.677 93.315,188.67 91.435,184.114C79.979,156.336 49.096,59.101 49.499,59.699L49.5,59.7Z" style="fill:rgb(33,88,166);fill-rule:nonzero;stroke:rgb(6,8,9);stroke-width:1.5px;"/>
        <path d="M59.403,63.426C58.199,59.242 56.545,53.736 58.274,49.737C59.08,47.874 60.457,46.33 61.936,44.966C68.924,38.518 135.93,14.899 146.825,11.932C150.276,10.992 154.946,9.574 160.138,18.168C167.553,30.443 192.352,113.788 199.68,145.613C200.215,147.937 200.736,150.431 199.896,152.665C199.1,154.785 197.217,156.268 195.304,157.419C192.251,159.255 188.914,160.534 185.576,161.736C172.066,166.603 125.838,184.14 111.762,186.799C109.168,187.289 106.426,187.73 103.955,186.802C100.055,185.337 98.063,181.016 96.485,177.082C86.867,153.101 59.064,62.91 59.403,63.426Z" style="fill:white;fill-rule:nonzero;stroke:rgb(6,8,9);stroke-width:1.5px;"/>
        <path d="M37.78,0.75C40.561,7.348 43.342,13.945 46.123,20.543" style="fill:none;fill-rule:nonzero;stroke:rgb(6,8,9);stroke-width:1.5px;"/>
        <path d="M0.75,34.511C9.525,37.113 18.047,40.565 26.16,44.801" style="fill:none;fill-rule:nonzero;stroke:rgb(6,8,9);stroke-width:1.5px;"/>
        <path d="M6.844,79.866C15.19,77.132 23.536,74.399 31.881,71.665C31.314,72.034 30.746,72.403 30.179,72.773" style="fill:none;fill-rule:nonzero;stroke:rgb(6,8,9);stroke-width:1.5px;"/>
        <path d="M78.986,17.711C77.113,18.601 76.13,20.682 76.672,22.683C77.994,27.56 79.898,33.722 81.2,37.616C81.443,38.344 81.716,39.108 82.304,39.601C83.318,40.452 84.828,40.186 86.113,39.864C100.572,36.246 114.777,31.618 128.592,26.025C129.273,25.749 130.001,25.43 130.366,24.793C130.708,24.195 130.648,23.457 130.562,22.774C129.884,17.397 128.198,12.148 125.618,7.382C124.951,6.149 124.161,4.887 122.915,4.244C121.284,3.403 119.315,3.829 117.543,4.306C104.779,7.746 91.824,11.61 78.985,17.71L78.986,17.711Z" style="fill:rgb(33,88,166);fill-rule:nonzero;stroke:rgb(6,8,9);stroke-width:1.5px;"/>
        <path d="M107.565,62.217C122.402,56.002 137.239,49.788 152.076,43.573C152.297,43.48 152.559,43.319 152.524,43.082C152.489,42.845 152.003,43.028 152.201,43.163" style="fill:none;fill-rule:nonzero;stroke:rgb(6,8,9);stroke-width:1.5px;"/>
        <path d="M118.909,98.486C134.649,93.3 150.194,87.521 165.499,81.164" style="fill:none;fill-rule:nonzero;stroke:rgb(6,8,9);stroke-width:1.5px;"/>
        <path d="M161.659,91.634C163.58,92.728 165.466,93.881 167.314,95.094L177.51,88.177C171.237,85.184 167.855,82.165 161.904,78.359C161.966,81.826 161.818,87.213 161.659,91.634Z" style="fill:white;fill-rule:nonzero;stroke:rgb(6,8,9);stroke-width:1.5px;"/>
        <path d="M205.878,39.923C207.75,36.544 209.58,33.178 211.288,29.852C208.666,27.721 200.545,21.928 197.207,20.544C194.956,23.733 192.74,26.999 190.542,30.295C192.923,31.787 195.944,33.689 198.968,35.592L205.878,39.923Z" style="fill:rgb(6,8,9);fill-rule:nonzero;stroke:rgb(6,8,9);stroke-width:1.5px;"/>
        <path d="M190.535,30.305C180.211,45.785 170.503,62.276 161.904,78.361C166.453,81.022 177.51,88.179 177.51,88.179C186.414,72.726 196.904,56.117 205.872,39.934C203.79,38.626 201.382,37.111 198.968,35.592L190.535,30.305Z" style="fill:rgb(156,196,251);fill-rule:nonzero;stroke:rgb(6,8,9);stroke-width:1.5px;"/>
        <path d="M177.51,88.178C177.51,88.178 166.453,81.021 161.904,78.36C167.855,82.166 171.237,85.185 177.51,88.178Z" style="fill:rgb(156,196,251);fill-rule:nonzero;stroke:rgb(6,8,9);stroke-width:1.5px;"/>
        <path d="M198.968,35.591C201.381,37.11 203.79,38.626 205.872,39.933C205.874,39.929 205.876,39.926 205.878,39.922L198.968,35.591Z" style="fill:rgb(156,196,251);fill-rule:nonzero;stroke:rgb(6,8,9);stroke-width:1.5px;"/>
        <path d="M190.542,30.294C190.542,30.294 190.537,30.301 190.535,30.305L198.968,35.591C195.944,33.688 192.923,31.786 190.542,30.294Z" style="fill:rgb(156,196,251);fill-rule:nonzero;stroke:rgb(6,8,9);stroke-width:1.5px;"/>
        <path d="M161.349,99.142L167.314,95.095C165.467,93.881 163.58,92.728 161.659,91.635C161.509,95.821 161.349,99.142 161.349,99.142Z" style="fill:rgb(6,8,9);fill-rule:nonzero;stroke:rgb(6,8,9);stroke-width:1.5px;"/>
        <path d="M135.826,135.486C150.118,129.639 164.643,124.361 179.354,119.668" style="fill:none;fill-rule:nonzero;stroke:rgb(6,8,9);stroke-width:1.5px;"/>
        <path d="M114.756,134.154C114.64,133.858 114.3,133.72 114.011,133.852C111.734,134.893 99.434,139.74 99.169,140.398C98.954,140.933 101.941,149.519 104.952,155.341C105.079,155.587 105.351,155.721 105.62,155.657C110.828,154.419 119.636,150.515 120.818,149.986C120.895,149.952 120.927,149.865 120.896,149.787L114.756,134.153L114.756,134.154Z" style="fill:rgb(184,204,224);fill-rule:nonzero;stroke:rgb(6,8,9);stroke-width:1.5px;"/>
        <path d="M99.158,98.002C99.042,97.706 98.702,97.568 98.413,97.7C96.136,98.741 83.836,103.588 83.571,104.246C83.356,104.781 86.343,113.367 89.354,119.189C89.481,119.435 89.753,119.569 90.022,119.505C95.23,118.267 104.038,114.363 105.22,113.834C105.297,113.8 105.329,113.713 105.298,113.635L99.158,98.002Z" style="fill:rgb(184,204,224);fill-rule:nonzero;stroke:rgb(6,8,9);stroke-width:1.5px;"/>
        <path d="M86.223,61.851C86.107,61.555 85.767,61.417 85.478,61.549C83.201,62.59 70.901,67.437 70.636,68.095C70.421,68.63 73.408,77.216 76.419,83.038C76.546,83.284 76.818,83.418 77.087,83.354C82.295,82.116 91.103,78.212 92.285,77.683C92.362,77.649 92.394,77.562 92.363,77.484L86.223,61.85L86.223,61.851Z" style="fill:rgb(184,204,224);fill-rule:nonzero;stroke:rgb(6,8,9);stroke-width:1.5px;"/>
    </g>
</svg>
