<?xml version="1.0" encoding="UTF-8" standalone="no"?>
<!DOCTYPE svg PUBLIC "-//W3C//DTD SVG 1.1//EN" "http://www.w3.org/Graphics/SVG/1.1/DTD/svg11.dtd">
<svg width="100%" height="100%" viewBox="0 0 467 536" version="1.1" xmlns="http://www.w3.org/2000/svg" xmlns:xlink="http://www.w3.org/1999/xlink" xml:space="preserve" xmlns:serif="http://www.serif.com/" style="fill-rule:evenodd;clip-rule:evenodd;stroke-linecap:round;stroke-linejoin:round;">
    <g>
        <path d="M140.106,532.797L0.75,533.293C0.75,533.293 9.651,478.69 13.797,453.719C58.241,452.908 110.746,454.613 149.912,454.613C153.722,457.202 140.105,532.797 140.105,532.797L140.106,532.797Z" style="fill:rgb(33,88,166);fill-rule:nonzero;stroke:rgb(6,8,9);stroke-width:1.5px;"/>
        <path d="M7.148,492.756C12.558,485.897 22.318,483.7 30.929,485.17C34.39,485.761 37.885,486.863 41.342,486.251C47.982,485.075 51.849,478.279 54.766,472.2C57.683,466.121 65.888,454.942 74.479,453.739" style="fill:none;fill-rule:nonzero;stroke:rgb(6,8,9);stroke-width:1.5px;"/>
        <path d="M34.075,533.174C36.384,528.761 39.752,521.81 43.321,518.336C48.517,513.279 55.671,510.914 62.424,508.272C73.165,504.07 83.677,498.663 91.803,490.477C101.385,480.825 107.494,466.767 112.891,454.283" style="fill:none;fill-rule:nonzero;stroke:rgb(6,8,9);stroke-width:1.5px;"/>
        <path d="M90.496,532.8C99.692,509.508 124.425,488.588 149.45,487.66" style="fill:none;fill-rule:nonzero;stroke:rgb(6,8,9);stroke-width:1.5px;"/>
        <path d="M121.43,532.8C124.031,529.506 130.129,516.864 144.041,518.114" style="fill:none;fill-rule:nonzero;stroke:rgb(6,8,9);stroke-width:1.5px;"/>
        <path d="M278.739,534.175C239.018,534.199 182.775,533.1 135.631,532.768C142.343,495.81 149.681,456.738 155.545,421.165C199.55,421.165 248.789,420.989 295.149,420.961C292.932,456.579 287.614,497.912 278.738,534.175L278.739,534.175Z" style="fill:rgb(33,88,166);fill-rule:nonzero;stroke:rgb(6,8,9);stroke-width:1.5px;"/>
        <path d="M18.79,347.197C18.79,347.197 180.316,267.438 249.327,232.093C259.993,244.786 270.659,257.479 281.325,270.172C285.388,275.008 289.452,279.843 293.484,283.674C333.407,261.404 373.957,240.255 415.382,219.769C412.823,211.728 410.598,207.899 406.473,199.778C427.622,200.8 443.302,201.676 465.449,202.328C454.29,221.894 448.631,236.96 433.193,257.154C429.534,249.957 427.875,243.761 422.549,237.934C377.953,260.861 331.094,284.247 286.876,309.099C273.513,292.16 257.656,273.446 245.135,257.573C193.291,282.094 141.088,307.967 90.535,335.05C70.397,345.839 28.455,366.442 27.958,366.338C27.339,366.208 18.791,347.196 18.791,347.196L18.79,347.197Z" style="fill:rgb(156,196,251);fill-rule:nonzero;stroke:rgb(6,8,9);stroke-width:1.5px;"/>
        <path d="M407.429,534.787C418.802,466.546 430.4,389.914 443.221,321.93C397.476,321.93 353.743,321.859 318.943,321.859C302.342,385.881 286.807,464.492 275.909,534.215C314.932,534.215 365.861,534.891 407.429,534.787Z" style="fill:rgb(33,88,166);fill-rule:nonzero;stroke:rgb(6,8,9);stroke-width:1.5px;"/>
        <path d="M301.31,394.614C305.162,381.098 314.968,371.154 326.55,363.193C335.138,357.289 345.204,353.604 353.181,346.897C361.157,340.19 366.747,331.272 362.27,321.86" style="fill:none;fill-rule:nonzero;stroke:rgb(6,8,9);stroke-width:1.5px;"/>
        <path d="M396.714,321.911C400.339,330.996 397.469,339.218 393.711,348.249C389.952,357.28 384.621,365.644 381.549,374.931C376.698,389.602 377.969,406.251 385.261,419.875C392.553,433.498 405.829,443.845 420.891,447.296" style="fill:none;fill-rule:nonzero;stroke:rgb(6,8,9);stroke-width:1.5px;"/>
        <path d="M420.891,321.925C415.999,335.577 412.151,345.991 409.947,360.324C409.242,364.907 408.845,369.745 410.566,374.051C413.588,381.611 421.998,385.252 429.611,388.139" style="fill:none;fill-rule:nonzero;stroke:rgb(6,8,9);stroke-width:1.5px;"/>
        <path d="M291.993,440.796C301.798,434.126 310.456,425.774 317.475,416.216C323.244,408.36 328.204,399.412 336.502,394.299C337.581,393.634 338.756,393.029 340.023,392.983C341.474,392.93 342.848,393.618 344.059,394.419C350.386,398.601 353.907,406.158 354.677,413.704C355.447,421.25 353.778,428.835 351.546,436.084C347.021,450.778 340.164,470.682 335.637,485.375C331.109,500.068 330.269,520.022 335.427,534.505" style="fill:none;fill-rule:nonzero;stroke:rgb(6,8,9);stroke-width:1.5px;"/>
        <path d="M283.09,494.881C289.137,485.04 301.565,464.582 309.93,469.107C314.339,471.492 314.75,477.821 314.532,482.83C313.862,498.22 306.296,519.002 309.592,534.049" style="fill:none;fill-rule:nonzero;stroke:rgb(6,8,9);stroke-width:1.5px;"/>
        <path d="M175.78,404.38L175.043,420.961C195.71,419.25 215.933,421.328 236.667,420.961C236.695,418.21 235.468,415.006 231.548,413.464C227.654,411.932 223.21,410.811 219.166,409.734C216.881,409.126 214.388,408.371 213.109,406.383C212.062,404.755 211.954,402.46 210.365,401.354C209.431,400.704 208.218,400.655 207.08,400.639C196.484,400.489 185.877,401.127 175.779,404.379L175.78,404.38Z" style="fill:rgb(6,8,9);fill-rule:nonzero;stroke:rgb(6,8,9);stroke-width:1.5px;"/>
        <path d="M58.138,418.263C54.79,424.148 51.662,430.158 47.999,436.124C56.54,444.9 68.757,448.214 79.992,453.809C87.637,453.809 94.686,454.12 103.762,454.12C102.035,447.376 92.213,444.965 87.372,439.535C88.788,434.957 87.953,436.63 89.369,432.052C89.505,431.612 89.642,431.146 89.535,430.699C89.403,430.148 88.934,429.752 88.481,429.411C84.061,426.085 78.75,424.203 73.53,422.371C69.01,420.784 64.489,419.197 58.138,418.262L58.138,418.263Z" style="fill:rgb(6,8,9);fill-rule:nonzero;stroke:rgb(6,8,9);stroke-width:1.5px;"/>
        <path d="M86.247,211.794C117.278,214.804 146.515,217.695 177.704,217.746C177.213,231.84 174.7,245.863 169.931,259.985C185.122,269.745 198.216,283.572 204.823,300.376C207.689,307.667 208.524,315.571 209.333,323.363C212.155,350.559 217.976,374.755 220.006,402.666C203.869,405.216 187.613,407.005 172.19,406.224C170.957,373.896 167.806,343.142 163.489,309.341C161.014,308.637 157.409,305.498 151.643,302.411C138.145,355.902 120.448,394.959 104.297,437.888C95.788,433.974 74.634,432.598 50.165,417.613C75.196,367.18 96.693,326.389 114.475,275.742C103.58,267.294 96.694,260.547 89.391,248.853C87.4,245.666 78.916,232.181 86.246,211.795L86.247,211.794Z" style="fill:white;fill-rule:nonzero;stroke:rgb(6,8,9);stroke-width:1.5px;"/>
        <path d="M132.325,73.924C132.29,81.665 131.292,82.89 131.981,90.6C129.283,91.416 126.793,91.464 124.221,92.499C123.936,99.724 124.054,108.259 126.151,115.179C128.249,122.099 132.752,128.604 139.358,131.544C142.613,132.992 146.649,133.436 149.578,131.406C151.655,129.966 152.811,127.556 153.754,125.211C158.135,114.317 161.221,101.101 160.511,89.422C158.456,89.422 154.686,89.581 153.975,89.912C152.949,83.833 153.944,82.399 153.65,75.044C147.949,74.475 142.293,73.464 132.324,73.923L132.325,73.924Z" style="fill:white;fill-rule:nonzero;stroke:rgb(6,8,9);stroke-width:1.5px;"/>
        <path d="M154.834,43.982C154.514,39.791 152.117,30.501 149.867,28.538C147.279,26.28 143.39,26.1 140.108,27.115C136.826,28.13 133.971,30.155 131.067,31.988C127.718,34.102 124.479,34.497 120.882,36.155C117.801,37.575 114.447,38.981 112.625,41.843C111.805,43.132 111.364,44.632 111.136,46.142C110.734,48.805 110.974,51.563 111.829,54.117C113.673,59.623 117.386,63.779 122.766,67.702C125.145,68.753 127.369,70.155 129.816,72.253C134.702,80.724 138.909,84.116 148.175,83.695C169.94,82.706 166.179,65.158 163.518,59.929C162.08,57.104 160.424,54.389 158.358,51.467C156.223,51.636 153.875,51.747 152.163,50.46C150.755,49.402 150.086,47.499 150.383,45.764C150.68,44.029 151.878,42.503 154.834,43.983L154.834,43.982Z" style="fill:rgb(6,8,9);fill-rule:nonzero;stroke:rgb(6,8,9);stroke-width:1.5px;"/>
        <path d="M136.697,64.525C135.264,62.486 132.572,58.02 132.209,54.281C131.932,51.422 131.692,48.93 132.878,46.315C134.064,43.7 136.681,41.559 139.549,41.704C140.935,41.774 142.332,42.353 143.674,41.999C145.531,41.509 146.576,39.425 148.382,38.772C149.856,38.24 151.553,38.809 152.736,39.838C153.919,40.867 154.678,42.288 155.351,43.704C157.116,47.418 158.461,51.332 159.355,55.346C159.451,55.777 159.541,56.228 159.431,56.656C159.291,57.198 158.855,57.607 158.416,57.954C156.734,59.285 154.743,60.157 152.777,61.014C149.509,62.439 146.241,63.864 142.972,65.289C141.997,65.714 140.989,66.146 139.926,66.154C138.863,66.162 137.563,65.76 136.695,64.526L136.697,64.525Z" style="fill:white;fill-rule:nonzero;stroke:rgb(6,8,9);stroke-width:1.5px;"/>
        <path d="M130.771,73.217C128.947,73.945 126.876,74.664 125.083,73.864C124.086,73.419 123.327,72.547 122.822,71.579C121.996,69.994 121.801,68.055 122.459,66.394C123.117,64.733 124.674,63.417 126.904,63.428C128.061,66.762 129.278,70.076 130.771,73.217Z" style="fill:white;fill-rule:nonzero;stroke:rgb(6,8,9);stroke-width:1.5px;"/>
        <path d="M114.792,276.208C127.31,287.107 141.07,296.579 155.72,304.383" style="fill:none;fill-rule:nonzero;stroke:rgb(6,8,9);stroke-width:1.5px;"/>
        <path d="M142.838,237.719C152.34,245.938 160.195,252.045 169.932,259.985" style="fill:none;fill-rule:nonzero;stroke:rgb(6,8,9);stroke-width:1.5px;"/>
        <path d="M96.141,434.338C111.655,389.296 128.524,344.721 146.719,300.694" style="fill:none;fill-rule:nonzero;stroke:rgb(6,8,9);stroke-width:1.5px;"/>
        <path d="M126.588,93.77C131.072,99.37 134.306,105.846 137.506,112.268C139.096,115.459 140.686,118.649 142.471,121.768C148.176,111.826 153.87,101.878 157.885,91.849C161.146,96.23 162.463,101.73 163.447,107.102C170.074,143.248 165.069,180.395 158.489,217.566C140.956,216.134 109.032,214.08 104.979,213.592C106.871,175.495 107.128,139.733 120.734,104.098C122.514,99.437 124.508,94.809 126.588,93.77Z" style="fill:rgb(6,8,9);fill-rule:nonzero;stroke:rgb(6,8,9);stroke-width:1.5px;"/>
        <path d="M95.106,214.658C94.293,224.252 93.581,234.413 97.898,243.019C100.245,247.699 103.923,251.561 107.659,255.228C124.613,271.872 143.929,286.106 164.615,297.917C170.704,301.394 174.757,307.577 175.529,314.546L185.718,406.538" style="fill:none;fill-rule:nonzero;stroke:rgb(6,8,9);stroke-width:1.5px;"/>
        <path d="M75.555,159.535C77.869,145.438 80.216,131.22 85.396,117.907C87.041,113.68 89.034,109.462 92.276,106.291C95.241,103.391 99.063,101.547 102.885,99.936C111.319,96.38 120.1,93.71 128.073,91.351C129.79,129.32 126.863,167.505 119.233,204.739C117.452,213.428 115.139,222.576 108.373,228.774C102.997,229.126 97.61,228.506 92.259,227.887C84.665,227.009 77.071,226.131 69.713,225.233C74.942,216.593 75.302,215.751 81.22,204.593C84.048,199.262 84.961,188.35 83.548,182.483C81.306,173.167 74.116,168.304 75.555,159.535Z" style="fill:rgb(33,88,166);fill-rule:nonzero;stroke:rgb(6,8,9);stroke-width:1.5px;"/>
        <path d="M156.385,89.56C155.7,106.509 154.954,125.458 154.27,142.407C153.902,151.51 153.534,160.618 152.69,169.69C150.893,189.011 146.951,208.06 143.002,227.977C156.575,229.255 170.39,230.522 184.032,227.323C182.807,209.68 181.593,191.819 184.749,174.417C186.169,166.587 188.463,158.929 189.693,151.067C190.491,145.966 190.852,140.739 192.622,135.889C193.567,133.299 194.907,130.844 195.546,128.162C196.418,124.503 195.931,120.674 195.44,116.945C194.598,110.547 192.396,105.612 188.646,100.361C185.066,95.347 179.246,92.237 173.211,91C167.176,89.763 161.867,89.111 156.385,89.56Z" style="fill:rgb(33,88,166);fill-rule:nonzero;stroke:rgb(6,8,9);stroke-width:1.5px;"/>
        <path d="M172.018,152.614C175.15,153.6 176.084,153.46 178.25,153.102C179.063,152.967 180.041,152.327 180.583,152.948C180.967,153.388 180.95,154.076 180.683,154.595C180.416,155.114 179.945,155.497 179.466,155.831C178.808,156.29 178.109,156.69 177.38,157.025" style="fill:white;fill-rule:nonzero;"/>
        <path d="M172.018,152.614C175.15,153.6 176.084,153.46 178.25,153.102C179.063,152.967 180.041,152.327 180.583,152.948C180.967,153.388 180.95,154.076 180.683,154.595C180.416,155.114 179.945,155.497 179.466,155.831C178.808,156.29 178.109,156.69 177.38,157.025" style="fill:none;fill-rule:nonzero;stroke:rgb(6,8,9);stroke-width:1.5px;"/>
        <path d="M75.979,158.837C81.907,160.215 86.959,159.609 93.043,159.761C96.424,159.846 99.936,159.67 102.947,158.129C103.132,161.194 103.048,164.276 102.71,167.468C121.636,162.269 142.572,155.514 162.279,151.71C164.978,151.189 167.851,150.761 170.41,151.766C172.505,152.589 174.128,154.278 175.564,156.012C180.811,162.348 184.654,172.772 182.951,173.464C181.447,174.469 179.781,172.354 178.67,170.258C177.626,168.289 173.559,162.406 172.425,159.672C173.173,160.32 176.301,166.11 176.634,167.041C176.967,167.972 176.668,169.21 175.747,169.572C174.858,169.921 173.378,168.83 172.715,168.142C171.936,167.333 168.888,162.6 168.53,161.535C168.91,162.307 171.99,167.329 172.371,168.1C172.644,168.654 173.174,169.237 173.153,169.855C173.132,170.473 172.92,171.598 171.768,171.661C171.255,171.689 170.631,171.314 170.277,170.941C169.186,169.792 165.341,164.809 164.689,163.365C165.383,164.422 168.873,169.23 169.237,170.44C169.362,170.856 169.844,173.58 167.758,173.065C167.479,172.996 167.204,172.931 166.961,172.778C165.344,171.764 162.843,169.319 161.845,167.987C119.585,187.867 107.715,196.789 85.738,193.405C83.916,193.124 82.055,192.691 80.565,191.604C77.594,189.437 74.116,186.456 74.116,180.687C74.116,172.681 74.701,168.788 75.978,158.836L75.979,158.837Z" style="fill:white;fill-rule:nonzero;stroke:rgb(6,8,9);stroke-width:1.5px;"/>
        <path d="M160.512,165.207L163.18,169.538L160.512,165.207Z" style="fill:white;fill-rule:nonzero;"/>
        <path d="M160.512,165.207L163.18,169.538" style="fill:none;fill-rule:nonzero;stroke:rgb(6,8,9);stroke-width:1.5px;"/>
        <path d="M107.966,130.554C105.757,139.764 104.091,149.103 102.978,158.509L107.966,130.554Z" style="fill:white;fill-rule:nonzero;"/>
        <path d="M107.966,130.554C105.757,139.764 104.091,149.103 102.978,158.509" style="fill:none;fill-rule:nonzero;stroke:rgb(6,8,9);stroke-width:1.5px;"/>
        <path d="M119.73,93.678C117.104,100.122 114.137,106.427 110.846,112.559C113.211,113.725 115.733,114.569 118.323,115.061C116.451,117.5 114.168,119.623 111.484,121.575C118.698,130.014 123.004,140.618 126.492,151.159" style="fill:none;fill-rule:nonzero;stroke:rgb(6,8,9);stroke-width:1.5px;"/>
        <path d="M175.435,180.948C164.023,181.012 152.61,181.076 141.198,181.139C140.626,182.268 140.26,183.5 140.124,184.759C140.09,185.076 140.081,185.431 140.289,185.673C140.522,185.943 140.927,185.962 141.283,185.96C153.439,185.895 165.494,186.098 177.642,185.66C177.924,184.389 177.025,181.464 175.435,180.948Z" style="fill:white;fill-rule:nonzero;stroke:rgb(6,8,9);stroke-width:1.5px;"/>
        <path d="M250.416,183.454C257.622,159.73 261.607,150.504 267.971,129.553C238.163,129.553 211.217,129.564 186.465,129.564C182.66,150.511 179.09,163.617 173.167,185.875C205.122,184.157 215.709,185.32 250.416,183.454Z" style="fill:white;fill-rule:nonzero;stroke:rgb(6,8,9);stroke-width:1.5px;"/>
        <path d="M214.145,151.554C213.393,152.453 212.806,153.494 212.562,154.64C211.798,158.223 213.929,162.202 217.334,163.553C220.739,164.904 225.018,163.467 226.918,160.335C227.572,159.257 227.958,158.03 228.136,156.782C228.287,155.726 228.15,154.663 227.909,153.624C226.262,146.519 217.421,147.639 214.144,151.554L214.145,151.554Z" style="fill:white;fill-rule:nonzero;stroke:rgb(6,8,9);stroke-width:1.5px;"/>
        <path d="M182.749,197.802C186.433,199.607 193.19,199.014 198.574,198.321C213.677,196.379 228.563,192.76 242.871,187.551C243.11,187.464 243.353,187.374 243.552,187.216C244.519,186.447 243.608,184.71 242.383,184.545C241.158,184.38 240.029,185.164 239.042,185.908C240.629,183.693 241.686,178.715 240.315,178.122C238.429,177.666 236.159,183.108 235.635,186.262C236.367,183.784 239.63,177.241 237.496,176.591C234.689,175.564 232.109,183.558 231.451,186.681C231.84,184.932 232.978,181.933 233.367,180.184C233.567,179.284 233.682,178.147 232.921,177.626C231.826,176.875 230.295,179.023 229.704,180.212C228.739,182.151 228.025,184.591 227.06,186.53C227.706,184.604 227.853,183.427 228.499,181.501C228.846,180.467 228.178,179.172 227.112,178.946C226.394,178.793 225.698,179.4 225.362,180.053C224.197,182.32 224.597,181.922 223.765,184.493C208.867,184.493 195.233,185.483 182.414,185.483C182.009,185.483 182.461,197.662 182.748,197.803L182.749,197.802Z" style="fill:white;fill-rule:nonzero;stroke:rgb(6,8,9);stroke-width:1.5px;"/>
        <path d="M460.504,350.049C459.293,349.885 458.011,350.471 457.343,351.494C456.675,352.517 456.653,353.926 457.289,354.97C458.423,356.828 461.532,356.916 462.819,355.16C464.106,353.404 463.173,350.41 460.504,350.049Z" style="fill:rgb(6,8,9);fill-rule:nonzero;"/>
        <path d="M90.677,295.913C90.123,295.838 89.538,296.106 89.232,296.574C88.926,297.042 88.916,297.685 89.207,298.162C89.725,299.011 91.146,299.051 91.734,298.249C92.322,297.447 91.897,296.078 90.677,295.913Z" style="fill:rgb(6,8,9);fill-rule:nonzero;"/>
        <path d="M357.491,187.72C356.568,187.595 355.592,188.041 355.083,188.821C354.574,189.601 354.557,190.673 355.042,191.468C355.906,192.884 358.274,192.95 359.254,191.612C360.234,190.274 359.523,187.994 357.491,187.719L357.491,187.72Z" style="fill:rgb(6,8,9);fill-rule:nonzero;"/>
        <path d="M159.813,89.913C163.059,94.85 166.09,99.927 168.895,105.127C167.19,106.986 165.148,108.536 162.893,109.69C165.017,111.66 167.495,113.246 169.731,114.499C163.447,125.736 158.167,137.534 153.976,149.707" style="fill:none;fill-rule:nonzero;stroke:rgb(6,8,9);stroke-width:1.5px;"/>
        <path d="M223.47,184.517C221.884,184.765 220.242,185.034 218.908,185.927C217.446,186.905 216.535,188.514 215.858,190.137" style="fill:white;fill-rule:nonzero;"/>
        <path d="M223.47,184.517C221.884,184.765 220.242,185.034 218.908,185.927C217.446,186.905 216.535,188.514 215.858,190.137" style="fill:none;fill-rule:nonzero;stroke:rgb(6,8,9);stroke-width:1.5px;"/>
        <path d="M150.239,51.061L155.714,57.234L152.049,59.192" style="fill:white;fill-rule:nonzero;"/>
        <path d="M150.239,51.061L155.714,57.234L152.049,59.192" style="fill:none;fill-rule:nonzero;stroke:rgb(6,8,9);stroke-width:1.5px;"/>
        <path d="M324.717,34.21C317.626,54.642 319.841,78.291 334.906,95.156C349.972,112.022 378.831,119.811 400.713,110.068C422.967,100.159 432.324,75.775 429.458,54.217C427.01,35.797 416.583,17.701 398.97,7.196C381.358,-3.309 338.359,-5.102 324.716,34.209L324.717,34.21Z" style="fill:rgb(156,196,251);fill-rule:nonzero;stroke:rgb(6,8,9);stroke-width:1.5px;"/>
        <path d="M338.859,40.719C333.747,55.449 335.343,72.499 346.205,84.658C357.067,96.817 377.873,102.433 393.648,95.409C409.692,88.265 416.437,70.686 414.372,55.144C412.607,41.864 405.09,28.818 392.392,21.244C379.694,13.67 348.695,12.378 338.859,40.719Z" style="fill:white;fill-rule:nonzero;stroke:rgb(6,8,9);stroke-width:1.5px;"/>
        <path d="M352.516,47.008C349.315,56.233 350.314,66.91 357.117,74.525C363.919,82.14 376.949,85.657 386.829,81.258C396.877,76.784 401.101,65.775 399.807,56.041C398.702,47.724 393.994,39.554 386.042,34.811C378.09,30.068 358.676,29.259 352.516,47.008Z" style="fill:rgb(156,196,251);fill-rule:nonzero;stroke:rgb(6,8,9);stroke-width:1.5px;"/>
        <path d="M366.297,53.351C365.024,57.02 365.421,61.268 368.127,64.296C370.833,67.324 376.016,68.724 379.945,66.974C383.942,65.195 385.622,60.815 385.107,56.944C384.667,53.636 382.795,50.386 379.632,48.499C376.469,46.612 368.747,46.29 366.297,53.35L366.297,53.351Z" style="fill:white;fill-rule:nonzero;stroke:rgb(6,8,9);stroke-width:1.5px;"/>
        <path d="M420.116,28.406C420.557,26.317 421.334,23.053 421.775,20.964C421.847,20.624 421.923,20.273 422.126,19.991C422.324,19.716 422.623,19.535 422.914,19.36C426.399,17.273 429.884,15.187 433.368,13.1C432.876,15.468 432.47,17.854 432.151,20.252C434.268,20.601 436.385,20.95 438.503,21.299C435.294,24.372 427.892,29.315 427.892,29.315C427.892,29.315 422.34,28.996 420.116,28.406Z" style="fill:rgb(33,88,166);fill-rule:nonzero;stroke:rgb(6,8,9);stroke-width:1.5px;"/>
        <path d="M378.061,58.144C394.341,46.538 410.621,34.932 426.901,23.326" style="fill:none;fill-rule:nonzero;stroke:rgb(6,8,9);stroke-width:1.5px;"/>
        <path d="M377.776,56.463C377.607,57.313 377.449,58.245 377.864,59.007C378.22,59.661 378.934,60.045 379.651,60.246" style="fill:none;fill-rule:nonzero;stroke:rgb(6,8,9);stroke-width:1.5px;"/>
        <path d="M455.06,459.86L459.593,465.624" style="fill:none;fill-rule:nonzero;stroke:rgb(6,8,9);stroke-width:1.5px;"/>
        <path d="M18.79,398.134L13.086,402.479" style="fill:none;fill-rule:nonzero;stroke:rgb(6,8,9);stroke-width:1.5px;"/>
        <path d="M281.771,398.857C281.217,398.782 280.632,399.05 280.326,399.518C280.02,399.986 280.01,400.629 280.301,401.106C280.819,401.955 282.24,401.995 282.828,401.193C283.416,400.391 282.99,399.022 281.77,398.857L281.771,398.857Z" style="fill:rgb(6,8,9);fill-rule:nonzero;"/>
    </g>
</svg>
