<?xml version="1.0" encoding="UTF-8" standalone="no"?>
<!DOCTYPE svg PUBLIC "-//W3C//DTD SVG 1.1//EN" "http://www.w3.org/Graphics/SVG/1.1/DTD/svg11.dtd">
<svg width="100%" height="100%" viewBox="0 0 120 116" version="1.1" xmlns="http://www.w3.org/2000/svg" xmlns:xlink="http://www.w3.org/1999/xlink" xml:space="preserve" xmlns:serif="http://www.serif.com/" style="fill-rule:evenodd;clip-rule:evenodd;stroke-linecap:round;stroke-linejoin:round;">
    <g transform="matrix(1,0,0,1,-320.092,0.000936683)">
        <path d="M324.717,34.21C317.626,54.642 319.841,78.291 334.906,95.156C349.972,112.022 378.831,119.811 400.713,110.068C422.967,100.159 432.324,75.775 429.458,54.217C427.01,35.797 416.583,17.701 398.97,7.196C381.358,-3.309 338.359,-5.102 324.716,34.209L324.717,34.21Z" style="fill:rgb(156,196,251);fill-rule:nonzero;stroke:rgb(6,8,9);stroke-width:1.5px;"/>
    </g>
    <g transform="matrix(1,0,0,1,-320.092,0.000936683)">
        <path d="M338.859,40.719C333.747,55.449 335.343,72.499 346.205,84.658C357.067,96.817 377.873,102.433 393.648,95.409C409.692,88.265 416.437,70.686 414.372,55.144C412.607,41.864 405.09,28.818 392.392,21.244C379.694,13.67 348.695,12.378 338.859,40.719Z" style="fill:white;fill-rule:nonzero;stroke:rgb(6,8,9);stroke-width:1.5px;"/>
    </g>
    <g transform="matrix(1,0,0,1,-320.092,0.000936683)">
        <path d="M352.516,47.008C349.315,56.233 350.314,66.91 357.117,74.525C363.919,82.14 376.949,85.657 386.829,81.258C396.877,76.784 401.101,65.775 399.807,56.041C398.702,47.724 393.994,39.554 386.042,34.811C378.09,30.068 358.676,29.259 352.516,47.008Z" style="fill:rgb(156,196,251);fill-rule:nonzero;stroke:rgb(6,8,9);stroke-width:1.5px;"/>
    </g>
    <g transform="matrix(1,0,0,1,-320.092,0.000936683)">
        <path d="M366.297,53.351C365.024,57.02 365.421,61.268 368.127,64.296C370.833,67.324 376.016,68.724 379.945,66.974C383.942,65.195 385.622,60.815 385.107,56.944C384.667,53.636 382.795,50.386 379.632,48.499C376.469,46.612 368.747,46.29 366.297,53.35L366.297,53.351Z" style="fill:white;fill-rule:nonzero;stroke:rgb(6,8,9);stroke-width:1.5px;"/>
    </g>
    <g transform="matrix(1,0,0,1,-320.092,0.000936683)">
        <path d="M420.116,28.406C420.557,26.317 421.334,23.053 421.775,20.964C421.847,20.624 421.923,20.273 422.126,19.991C422.324,19.716 422.623,19.535 422.914,19.36C426.399,17.273 429.884,15.187 433.368,13.1C432.876,15.468 432.47,17.854 432.151,20.252C434.268,20.601 436.385,20.95 438.503,21.299C435.294,24.372 427.892,29.315 427.892,29.315C427.892,29.315 422.34,28.996 420.116,28.406Z" style="fill:rgb(33,88,166);fill-rule:nonzero;stroke:rgb(6,8,9);stroke-width:1.5px;"/>
    </g>
    <g transform="matrix(1,0,0,1,-320.092,0.000936683)">
        <path d="M378.061,58.144C394.341,46.538 410.621,34.932 426.901,23.326" style="fill:none;fill-rule:nonzero;stroke:rgb(6,8,9);stroke-width:1.5px;"/>
    </g>
    <g transform="matrix(1,0,0,1,-320.092,0.000936683)">
        <path d="M377.776,56.463C377.607,57.313 377.449,58.245 377.864,59.007C378.22,59.661 378.934,60.045 379.651,60.246" style="fill:none;fill-rule:nonzero;stroke:rgb(6,8,9);stroke-width:1.5px;"/>
    </g>
</svg>
